<svg width="270" height="62" viewBox="0 0 270 62" fill="none" xmlns="http://www.w3.org/2000/svg">
<path d="M41.0584 27.3773C39.5377 29.1422 38.7778 31.5968 38.9853 34.0736L38.9496 34.0324C39.1629 36.9471 38.2515 39.822 36.4585 41.8903C34.6655 43.9586 32.1732 45.0099 29.6465 44.7639L29.6822 44.805C26.6229 44.4766 23.7135 46.3961 22.408 49.6045C21.1024 52.8128 21.6809 56.621 23.8545 59.126C26.0281 61.631 29.3299 62.295 32.1101 60.786C34.8902 59.2771 36.5517 55.9193 36.2641 52.3907L36.3018 52.4318C36.0885 49.5172 36.9999 46.6423 38.7929 44.574C40.586 42.5057 43.0782 41.4543 45.6049 41.7004L45.5673 41.6592C48.9295 42.008 52.0581 39.6432 53.1231 35.9479C54.188 32.2526 52.9096 28.1978 50.0355 26.155C47.1614 24.1123 43.4468 24.6184 41.0644 27.3773H41.0584Z" fill="#5454D4"/>
<path d="M26.4378 39.4141L26.4001 39.3729C28.5486 39.6226 30.6807 38.7463 32.2082 36.9856C33.7357 35.2249 34.4971 32.7661 34.2822 30.2875L34.3198 30.3287C34.1066 27.414 35.018 24.5392 36.811 22.4709C38.604 20.4026 41.0963 19.3512 43.623 19.5973L43.5853 19.5561C46.6449 19.8875 49.556 17.9701 50.8636 14.7622C52.1711 11.5543 51.5943 7.74502 49.4213 5.23847C47.2484 2.73192 43.9461 2.06649 41.1652 3.57481C38.3842 5.08313 36.722 8.44121 37.0093 11.9705L36.9736 11.927C37.1876 14.8419 36.2765 17.7173 34.4833 19.7858C32.6901 21.8543 30.1974 22.9053 27.6705 22.6585L27.7062 22.7019C25.5577 22.4522 23.4255 23.3286 21.8981 25.0893C20.3706 26.8499 19.6092 29.3088 19.8241 31.7873L19.7884 31.7461C20.001 34.6606 19.0893 37.535 17.2965 39.6031C15.5036 41.6712 13.0118 42.7228 10.4853 42.4776L10.521 42.5187C7.46141 42.1873 4.55027 44.1048 3.2427 47.3127C1.93513 50.5205 2.51199 54.3298 4.68494 56.8364C6.85788 59.3429 10.1602 60.0084 12.9411 58.5C15.722 56.9917 17.3843 53.6336 17.097 50.1044L17.1346 50.1455C16.9213 47.2309 17.8327 44.356 19.6258 42.2877C21.4188 40.2194 23.911 39.168 26.4378 39.4141V39.4141Z" fill="#FF7143"/>
<path d="M13.155 34.8256C14.6759 33.0611 15.4352 30.6059 15.2261 28.1294L15.2637 28.1705C15.0503 25.255 15.9622 22.3793 17.7561 20.3108C19.5501 18.2423 22.0434 17.1916 24.5708 17.4391L24.5332 17.3979C27.5916 17.7284 30.5014 15.8111 31.8081 12.6043C33.1149 9.39739 32.5381 5.58962 30.366 3.08399C28.1938 0.578365 24.8928 -0.0870192 22.1128 1.42038C19.3327 2.92778 17.6706 6.28425 17.9572 9.81229L17.9215 9.77114C18.1348 12.6858 17.2234 15.5607 15.4303 17.629C13.6373 19.6973 11.1451 20.7486 8.61834 20.5026L8.65402 20.5437C5.2919 20.1959 2.16396 22.5614 1.09964 26.2567C0.0353145 29.9519 1.31418 34.0063 4.18827 36.0486C7.06235 38.0908 10.7767 37.5844 13.1589 34.8256H13.155Z" fill="#5454D4"/>
<path d="M74.5489 12.0232H80.4352V45.0657H74.5489V12.0232Z" fill="#19191B"/>
<path fill-rule="evenodd" clip-rule="evenodd" d="M90.1594 22.6343C86.2749 24.5062 83.7519 28.895 83.7688 33.7511C83.7484 36.9353 84.8388 39.9953 86.7947 42.2424C88.7506 44.4895 91.4076 45.7351 94.1679 45.6988C98.3777 45.6988 102.172 42.7709 103.779 38.2825C105.386 33.7941 104.489 28.6308 101.506 25.2038C98.5236 21.7769 94.0439 20.7625 90.1594 22.6343ZM94.0843 28.6881C96.5612 28.6353 98.6122 30.8946 98.6807 33.7511C98.7476 35.1672 98.298 36.551 97.4408 37.5676C96.5836 38.5842 95.3969 39.141 94.1679 39.1031C91.6906 39.1033 89.676 36.8008 89.653 33.9434C89.6301 31.0859 91.6075 28.7408 94.0843 28.6881Z" fill="#19191B"/>
<path fill-rule="evenodd" clip-rule="evenodd" d="M128.027 43.9248V22.4345L122.297 22.4299V24.739C120.9 22.7661 118.774 21.6745 116.568 21.7966C111.186 21.9924 106.911 27.0816 106.911 33.2928C106.911 39.504 111.186 44.5932 116.568 44.789C118.774 44.9111 120.9 43.8195 122.297 41.8466V43.9156C122.396 45.2807 121.951 46.6235 121.089 47.5653C120.227 48.5071 119.04 48.9458 117.864 48.7578C116.003 48.9769 114.22 47.8405 113.391 45.9069L108.368 49.2562C110.333 52.9491 113.922 55.0665 117.668 54.7431C122.886 54.7431 128.027 51.5287 128.027 43.9248ZM119.502 28.0658C121.273 28.9869 122.38 31.0575 122.299 33.2962C122.336 34.7418 121.841 36.1378 120.937 37.1395C120.033 38.1412 118.803 38.6552 117.553 38.5545C115.61 38.5572 113.861 37.1972 113.135 35.1191C112.409 33.0409 112.851 30.6621 114.252 29.1101C115.653 27.5581 117.732 27.1447 119.502 28.0658Z" fill="#19191B"/>
<path fill-rule="evenodd" clip-rule="evenodd" d="M137.751 22.6343C133.867 24.5062 131.344 28.895 131.361 33.7511C131.34 36.9353 132.431 39.9953 134.387 42.2424C136.342 44.4895 138.999 45.7351 141.76 45.6988C145.97 45.6988 149.764 42.7709 151.371 38.2825C152.978 33.7941 152.081 28.6308 149.098 25.2038C146.115 21.7769 141.636 20.7625 137.751 22.6343ZM141.676 28.6881C144.153 28.6353 146.204 30.8946 146.273 33.7511C146.339 35.1672 145.89 36.551 145.033 37.5676C144.175 38.5842 142.989 39.141 141.76 39.1031C139.282 39.1033 137.268 36.8008 137.245 33.9434C137.222 31.0859 139.199 28.7408 141.676 28.6881Z" fill="#19191B"/>
<path fill-rule="evenodd" clip-rule="evenodd" d="M157.084 12.6054C155.764 13.236 154.904 14.7215 154.904 16.3693C154.923 18.61 156.493 20.421 158.436 20.4433C159.864 20.4433 161.152 19.4507 161.699 17.9284C162.245 16.406 161.943 14.6537 160.933 13.4885C159.923 12.3234 158.404 11.9748 157.084 12.6054ZM161.387 22.4345H155.498L155.491 45.068H161.387V22.4345Z" fill="#19191B"/>
<path fill-rule="evenodd" clip-rule="evenodd" d="M184.267 41.9746C186.028 39.732 186.94 36.7724 186.803 33.7512C186.941 30.7295 186.029 27.7689 184.269 25.5257C182.508 23.2824 180.045 21.9419 177.424 21.8012C175.216 21.6623 173.07 22.6754 171.58 24.5607V22.4345H165.693V54.119H171.58V42.9372C173.069 44.8238 175.215 45.8379 177.424 45.6989C180.044 45.5576 182.507 44.2172 184.267 41.9746ZM176.171 28.5004C178.734 28.451 180.852 30.7947 180.917 33.7511C181.005 35.2203 180.546 36.6634 179.655 37.7178C178.764 38.7722 177.525 39.3378 176.249 39.2723C173.685 39.2726 171.601 36.8885 171.579 33.9313C171.558 30.9742 173.607 28.5499 176.171 28.5004Z" fill="#19191B"/>
<path d="M204.967 38.2757C204.967 43.4814 201.045 45.699 196.808 45.699C193.305 46.0651 189.962 43.9311 188.371 40.3127L193.47 36.9635C193.895 38.648 195.283 39.7608 196.8 39.6337C198.211 39.6337 198.918 39.1354 198.918 38.2323C198.918 35.7403 189.264 37.0549 189.264 29.2247C189.264 24.2887 192.875 21.8014 196.956 21.8014C200.081 21.6873 203.011 23.5424 204.606 26.6435L199.584 29.7665C199.134 28.5545 198.099 27.7705 196.956 27.7752C195.936 27.7752 195.307 28.2324 195.307 29.0418C195.315 31.6229 204.967 29.9014 204.967 38.2757Z" fill="#19191B"/>
<path d="M226.469 22.4346V45.068H220.583V42.9395C219.205 44.8447 217.119 45.8719 214.974 45.7013C211.01 45.7013 207.641 42.4434 207.641 36.3278V22.4346H213.527V35.3333C213.427 36.4244 213.749 37.5107 214.407 38.3035C215.064 39.0962 215.991 39.515 216.94 39.4485C219.098 39.4485 220.589 38.0013 220.589 34.7869V22.4414L226.469 22.4346Z" fill="#19191B"/>
<path d="M260.221 31.1701V45.0656H254.335V31.7576C254.335 29.4943 253.393 28.0471 251.511 28.0471C249.549 28.0471 248.449 29.6314 248.449 32.3017V45.0656H242.564V31.7576C242.564 29.4943 241.623 28.0471 239.738 28.0471C237.776 28.0471 236.678 29.6314 236.678 32.3017V45.0656H230.792V22.4322H236.678V24.5126C237.918 22.6372 239.898 21.6154 241.936 21.7989C243.985 21.6833 245.936 22.8169 247.075 24.7847C248.401 22.7275 250.55 21.6 252.765 21.7989C257.27 21.8012 260.221 25.5117 260.221 31.1701Z" fill="#19191B"/>
<path d="M265.2 22.2951C267.612 22.2951 269.568 20.0392 269.568 17.2563C269.568 14.4735 267.612 12.2175 265.2 12.2175C262.787 12.2175 260.832 14.4735 260.832 17.2563C260.832 20.0392 262.787 22.2951 265.2 22.2951Z" fill="#19191B"/>
</svg>
